<?xml version="1.0" encoding="UTF-8"?>
<!DOCTYPE svg PUBLIC "-//W3C//DTD SVG 1.1//EN" "http://www.w3.org/Graphics/SVG/1.1/DTD/svg11.dtd">
<!-- Creator: CorelDRAW 2019 (64-Bit) -->
<svg xmlns="http://www.w3.org/2000/svg" xml:space="preserve" width="190.386mm" height="190.275mm" version="1.1" style="shape-rendering:geometricPrecision; text-rendering:geometricPrecision; image-rendering:optimizeQuality; fill-rule:evenodd; clip-rule:evenodd"
viewBox="0 0 1509.54 1508.66"
 xmlns:xlink="http://www.w3.org/1999/xlink">
 <defs>
  <style type="text/css">
   <![CDATA[
    .str0 {stroke:lime;stroke-width:27.97;stroke-miterlimit:22.9256}
    .fil0 {fill:none;fill-rule:nonzero}
    .fil2 {fill:black}
    .fil4 {fill:lime}
    .fil1 {fill:#CCCCCC}
    .fil3 {fill:#FEFEFE}
    .fil5 {fill:black;fill-rule:nonzero}
   ]]>
  </style>
 </defs>
 <g id="Capa_x0020_1">
  <metadata id="CorelCorpID_0Corel-Layer"/>
  <g id="_2190224189600">
   <path class="fil0 str0" d="M754.77 214.81c150.02,0 285.86,60.82 384.18,159.14 98.32,98.32 159.14,234.15 159.14,384.18 0,150.03 -60.82,285.86 -159.14,384.18 -98.32,98.32 -234.15,159.13 -384.18,159.13 -150.03,0 -285.86,-60.82 -384.18,-159.13 -98.32,-98.32 -159.13,-234.15 -159.13,-384.18 0,-150.02 60.82,-285.86 159.13,-384.18 98.32,-98.32 234.15,-159.14 384.18,-159.14z"/>
   <path class="fil1" d="M532.74 37.62l11.51 -2.78c0,0 4.35,-2.07 9.71,9.35 13.1,27.91 21.24,29.98 41.78,26 23.36,-3.72 40.39,-26.79 34.17,-56.42 0,0 -0.7,-4.35 13.5,-5.74 14.2,-1.39 15.31,-2.78 15.48,4.38 0.17,7.16 13.72,44.9 41.01,41.61 27.29,-3.29 34.33,-16.64 37.48,-29.88 3.15,-13.23 3.23,-21.9 3.23,-21.9 0,0 -3.2,-2.17 14.31,-2.25 17.51,-0.07 15.57,1.41 15.79,7.09 0.22,5.68 4.82,32.39 14.19,42.53 4.38,4.06 9.96,8.8 32.52,4.78 22.56,-4.02 32.92,-32.99 34.01,-35.69 1.48,-3.67 1.5,-10.32 6.37,-10.86 2.33,-0.26 7.36,0.76 12.44,1.48 5.53,0.78 10.72,2.39 10.56,6.23 -0.32,7.43 0.34,38.41 7.37,44.59 7.03,6.17 19.32,12.18 30.78,10.88 11.47,-1.29 19.92,-1.19 32.2,-17.78 0,0 8.69,-14.7 9.24,-17.3 0.55,-2.6 2.1,-7.62 11.53,-4.47 9.43,3.16 18.72,3.17 17.81,8.13 -0.92,4.96 -4,46.9 9.24,53.85 13.24,6.95 28.36,15.59 46.36,3 18,-12.59 25.21,-23.53 25.21,-23.53 0,0 1.78,-4.84 12.4,1.35 10.62,6.19 12.41,7.05 10.81,11.66 -1.59,4.61 -9,34.37 -6.02,42.06 2.98,7.69 20.79,17.71 30.5,19.57 9.71,1.86 21.11,1.84 28.54,-3.43 7.43,-5.27 16.42,-15.36 16.42,-15.36 0,0 5.86,-6.31 11.63,-1.51 5.77,4.8 11.02,7.61 12.71,9.53 1.69,1.92 4.01,1.91 -0.86,12.98 -4.87,11.07 -8.67,25.53 -8.37,30.4 0.3,4.87 1.15,9.47 10.79,19.15 13.71,11.12 26.62,15.16 45.21,7.78 18.64,-7.39 17.87,-22.11 31.05,-9.2 8.8,8.62 14.64,11.86 12.42,14.64 -1.32,1.65 -7.34,12.77 -13.6,23.28 -9.03,15.14 -8.7,20.95 7.29,37 6.86,6.88 14.68,12.32 19.66,13.17 13.13,2.24 26.24,-2.82 40.18,-10.81 0,0 7.59,-5.55 13.46,5.4 5.18,9.64 13.36,11.45 1.76,20.47 -3.61,2.8 -8.53,9.74 -10.61,13.69 -2.89,5.51 -5.6,10.86 -5.45,18.64 0.13,6.83 2.7,18.62 10.49,25.74 9.77,7.98 19.23,13.24 31.13,12.11 11.91,-1.13 23.14,-4.51 23.14,-4.51 0,0 8.19,-4.09 11.22,2.11 3.02,6.2 6.35,13.22 6.35,13.22 0,0 2.39,4.29 -3.32,9.87 -22.88,22.39 -29.59,56.63 -0.3,72.24 0,0 10.25,6.66 35.31,0.45 0,0 9.93,-3.65 12.19,5.17 2.26,8.82 6.77,18.87 6.77,18.87 0,0 5.34,6.16 -13.5,15.04 -18.84,8.88 -28.27,37.6 -11.36,54.7 20.67,20.88 43.4,12.7 51.55,18.72 2.57,1.9 1.76,4.37 2.58,10.54 1.34,8.27 5.25,12.87 -3.18,16.3 -8.43,3.43 -36.67,17.44 -35.61,41.81 1.06,24.37 14.56,33.62 25.1,35.38 10.54,1.77 13.68,2.5 20.75,2.21 0,0 8.86,-1.75 8.9,7.96 0.04,9.71 0.58,13.55 0.61,16.61 0.03,3.06 -2.33,7.44 -11.92,8.52 -9.59,1.08 -34.41,11.27 -35.57,34.62 -1.17,23.35 0.4,29.72 9.37,34.41 0,0 17.21,7.56 28.06,8.23 10.84,0.68 10.56,4.72 10.2,8.98 -0.36,4.26 -1.64,19.18 -1.64,19.18 0,0 -0.74,6.52 -11.56,6.05 -10.82,-0.47 -41.57,5.93 -44.3,34.03 -2.75,28.34 6.49,31.36 21.15,37.73 14.65,6.37 22.04,8.79 20.01,16.43 -2.03,7.64 -2.39,20.01 -10.73,20.95 -8.34,0.94 -31.61,-6.99 -47.97,16.39 -16.36,23.38 -9.26,39.57 -3.77,43.28 0,0 17.99,13.49 23.54,15.92 5.55,2.43 7.32,5.93 5.95,9.67 -1.37,3.74 -5.58,14.14 -5.58,14.14 0,0 -0.34,6.37 -13.39,2.99 -13.05,-3.38 -39.2,0.62 -48.42,12.43 -9.22,11.81 -13.59,26.72 -5.95,38.32 7.64,11.59 16.97,19.67 23.27,25.38 0,0 6.9,3.25 0.6,12.81 -10.65,16.17 -6.36,19.76 -24.39,11.15 -9.38,-4.48 -30.68,-10.85 -47.49,6.67 -16.81,17.52 -14.01,29.85 -5.86,41.62 5.93,8.56 17.65,23.55 17.65,23.55 0,0 2.86,3.36 -4.03,11.01 -6.88,7.63 -8.18,13.91 -15.67,10.16 -15.82,-7.93 -26.32,-11.44 -37.15,-11.29 -8.7,0.12 -20.52,3.96 -34.11,20.05 -9.74,11.53 -1.33,24.81 14.2,49.45 0,0 6.22,6.28 0.5,10.08 -5.72,3.79 -13.12,10.98 -13.12,10.98 0,0 -4.21,5.75 -10.77,-0.05 -6.57,-5.8 -27.66,-26.23 -56.38,-9.47 -20.65,16.86 -16.61,39.05 -5.44,58.46 5.25,9.12 -1.85,11.8 -5.37,14.12 -3.53,2.32 -9,6.29 -9,6.29 0,0 -5.57,4.85 -11.66,-4.17 -6.09,-9.03 -29.76,-24.3 -46.27,-19.06 -16.51,5.24 -29.54,16.65 -30.35,25.4 -0.81,8.75 5.73,35.22 5.73,35.22 0,0 2.26,5.44 -5.3,8.91 -7.55,3.48 -11.62,5.71 -14.6,7.47 -2.98,1.77 -5.04,2.1 -9.99,-4.36 -4.95,-6.46 -22.54,-25.75 -31.67,-26.2 -9.13,-0.45 -36.86,11.97 -40.49,21.03 0,0 -4.15,9.97 -2.02,27.04 2.14,17.07 0.31,19.6 -5.87,20.93 -6.18,1.33 -14.52,4.17 -14.52,4.17 -6.59,1.88 -12.56,-15.76 -16.82,-26.5 -2.61,-6.58 -11.79,-11.86 -26.25,-12.77 -14.46,-0.9 -31.47,9.25 -38.56,23.14 -7.09,13.89 -5.68,27.97 -5.58,29.13 0.1,1.16 1.87,6.09 -9.9,7.66 -11.77,1.57 -16.07,5.4 -18.93,-1.24 0,0 -6.61,-26.8 -9.06,-29.8 -2.45,-3 -20.14,-18.52 -46.07,-7.89 0,0 -20.19,10.09 -24.45,35.9 0,0 -1.35,12.4 -8.27,12.76 -6.93,0.36 -15.96,0.75 -15.96,0.75 0,0 -7.13,0.38 -8.66,-11.27 -1.53,-11.65 -3.96,-25.73 -9.38,-28.92 -5.43,-3.19 -21.41,-17.64 -47.88,-7.06 0,0 -15.88,8.97 -24.34,31.25 0,0 -1.93,10.99 -11.11,8.22 0,0 -7.16,-0.78 -11.54,-1.23 -4.38,-0.46 -6.52,-5.39 -6,-11.99 2.42,-30.68 -23.46,-52.9 -54.28,-43.28 -9.18,3.39 -16.95,14.97 -24.14,28.29 -1.98,3.66 -5.11,8.34 -7.85,7.4 -4.39,-1.51 -13.32,-5.03 -17.95,-6.83 -4.64,-1.8 -3.86,-8.01 -4.12,-12.2 -0.26,-4.19 3.45,-18.12 -0.41,-26.13 -3.86,-8.01 -18.84,-30.39 -43.11,-24.69 0,0 -13.97,4.32 -29.02,20.59 0,0 -7.14,11.57 -11.87,8.94 -4.73,-2.63 -18.06,-8.52 -18.06,-8.52 -5.88,-10.02 7.17,-34.32 4.56,-41.89 -1.26,-3.66 -22.03,-26.86 -33.55,-29.78 -11.52,-2.92 -36.83,15.98 -36.83,15.98 0,0 -12.05,11.07 -16.16,8.37 -4.1,-2.7 -14.15,-9.38 -14.15,-9.38 0,0 -6.67,-3.04 -0.92,-13.83 5.75,-10.78 7.18,-14.96 9.51,-18.6 2.33,-3.64 -3.62,-15.21 -3.62,-15.21 0,0 -9.77,-19.65 -23.66,-24.84 -13.89,-5.19 -22.1,-2.72 -31.54,1.51 -9.44,4.23 -16.54,11.47 -16.54,11.47 -6.52,4.99 -16.03,-8.81 -19.93,-11.05 0,0 -6.93,-5.76 0.43,-13.46 8.3,-10.27 13.46,-35.62 4.42,-50.22 -9.04,-14.6 -28.66,-23.89 -46.05,-15.18 -11.81,5.92 -18.67,16.85 -28.47,4.05 -3.38,-4.42 -9.38,-10.13 -9.38,-10.13 0,0 -6.34,-5.72 5.49,-14.02 11.84,-8.3 17.46,-18.33 16.81,-25.01 -0.65,-6.68 -1.79,-22.39 -15.19,-32.7 -13.41,-10.31 -21.98,-11.45 -32.13,-9.68 -10.14,1.78 -22.09,6.29 -22.09,6.29 0,0 -2.89,2.44 -7.07,-4.69 -4.18,-7.13 -7.16,-12.92 -7.16,-12.92 0,0 -5.74,-6.95 4.15,-11.87 9.9,-4.92 24.77,-26.55 22.34,-39.68 -2.43,-13.13 -12.77,-30.86 -26.05,-34.43 -13.28,-3.57 -34.59,0.31 -34.59,0.31 0,0 -6.58,1.59 -9.02,-4.16 -2.44,-5.74 -4.21,-11.14 -4.21,-11.14 0,0 -3.56,-5.4 7.27,-10.43 10.83,-5.02 26.9,-23.51 26.75,-34.26 -0.16,-10.75 -4.83,-35.34 -22.91,-40.27 -18.08,-4.93 -32.18,-2.7 -32.18,-2.7 0,0 -6.3,2.19 -8.28,-7.93 -1.99,-10.12 -2.92,-14.66 -2.92,-14.66 0,0 -3.23,-6.18 7.31,-8.21 10.54,-2.03 30.97,-17.43 32.2,-30.87 1.8,-19.65 -1.19,-33.49 -18.68,-45.82 -7.46,-5.26 -30.9,0.99 -31.7,-4.02l-2.88 -18.04c0,0 -4.91,-11.69 6.95,-13.24 11.86,-1.55 36.42,-10.23 39.48,-26.2 4.75,-24.83 -12.63,-47.53 -36.58,-52.51 -13.84,-2.87 -9.99,-6.63 -9.5,-17.24 0.49,-10.61 -1.8,-15.01 8.32,-16.05 10.12,-1.04 29.14,1.25 39.35,-18.22 8.29,-15.82 9.52,-33.02 -2.42,-48.83 -2.55,-3.38 -7.13,-5.17 -12.29,-6.54 -8.38,-2.22 -20.41,-5.93 -19.57,-9.72 0.84,-3.79 4.72,-19 4.72,-19 0,0 -0.75,-6.67 9.01,-7.14 9.76,-0.47 38.07,-2.18 45.9,-13.3 7.82,-11.12 5.67,-38.64 5.67,-38.64 0,0 0.5,-6.81 -7.53,-12.45 -8.02,-5.64 -21.64,-14.03 -21.64,-14.03 0,0 -5.01,-3.23 0.16,-14.48 5.17,-11.24 7.69,-15.12 14.27,-14.8 6.58,0.31 40.27,7.92 53.13,-14.65 12.87,-22.56 -0.84,-42.97 -6.7,-46.32 -5.87,-3.35 -16.24,-12.95 -16.24,-12.95 0,0 -3.76,-1.48 4.82,-13.42 8.58,-11.95 5,-13.65 18.1,-9.85 13.1,3.8 39.33,9.92 52.59,-11 13.26,-20.92 3.78,-37.58 2.06,-41.61 -1.72,-4.03 -8.83,-12.72 -11.68,-15.57 -2.85,-2.84 -5,-5.5 -0.25,-11.58 4.75,-6.08 11.07,-16.03 19.51,-10.44 8.44,5.59 30.51,12.18 45.83,5.81 15.33,-6.37 23.77,-28.86 24.86,-37.85 1.1,-8.99 -14.62,-26.64 -14.62,-26.64 0,0 -9.27,-8.15 5.14,-18.1 9.64,-6.66 9.07,-7.57 16.35,-2.9 7.28,4.67 27.04,18.91 51.19,10.27 24.15,-8.64 23.75,-38.36 23.75,-38.36 0,0 -5.89,-14.75 -10.43,-19.51 -4.55,-4.76 -5.83,-10.53 1.39,-15.78 7.22,-5.25 14.5,-13.67 22.23,-5.04 7.73,8.63 20.79,19.61 29.66,19.67 8.87,0.05 23.28,0.54 33.88,-6.57 10.6,-7.11 15.58,-22.87 14.06,-30.72 -1.52,-7.85 -7.09,-25.38 -7.09,-25.38 0,0 -4.02,-5.67 9.04,-11.57 13.06,-5.91 10.99,-7.36 17.03,-0.65 6.03,6.71 24.61,29.1 33.8,28.28 9.2,-0.83 26.08,-2.73 35.08,-10.92 9,-8.19 8.54,-21.65 8.54,-21.65l-0.66 -22.73c0,0 -2.54,-7.52 3.46,-8.62 6,-1.1 9.58,-1.75 9.58,-1.75zm186.67 429.86c0,0 -31.95,-41.78 13.35,-81.94 45.29,-40.15 221.16,-187.93 221.16,-187.93 0,0 36.22,-36.39 68.26,-4.96 0,0 20.94,15.37 16.63,66.95l7.06 257.19c0,0 12.06,52.69 -38.14,68.07 0,0 -19.9,1.4 -11.78,7.87 8.12,6.47 35.98,58.86 41.95,93.02 5.96,34.16 3.84,28.49 8.43,26.07 4.58,-2.42 39.51,-24.09 63.8,-1.49 24.29,22.59 146.37,167.16 180.9,203.79 34.53,36.64 45.12,51.91 42.29,73.55 -2.84,21.64 -13.49,39.52 -62.44,41.66 -48.95,2.14 -263.29,10.91 -263.29,10.91 0,0 -50.08,5.22 -67.35,-16.89 -17.27,-22.12 -14.41,-30.46 -14.41,-30.46 0,0 -0.46,-11.56 -12.48,1.62 -12.02,13.18 -75.86,36.85 -95.34,38.2 0,0 -5.19,1.64 -12.37,1.71 -7.17,0.07 -3.54,8.84 0.19,12.01 3.73,3.17 14.45,38.27 -0.21,56.18 -14.66,17.91 -215.13,192.74 -215.13,192.74 0,0 -31.25,29.91 -40.72,33.94 -9.47,4.02 -35.97,6.8 -52.3,-8.88 -16.34,-15.68 -16.04,-31.76 -17.14,-52.75 -1.1,-20.99 -11.17,-282.48 -11.17,-282.48 0,0 -6.04,-40.49 28.06,-54.47 0,0 17.82,-8.56 28.25,-7.83 0,0 -1.58,-4.68 -9.15,-13.75 -7.57,-9.07 -27.22,-42.95 -33.77,-78.52 0,0 -8.05,-24.64 -8.74,-32.58 -0.68,-7.94 -3.84,-7.8 -8.16,-4.99 -4.33,2.81 -42.26,25.88 -65.56,-1.05 0,0 -110.76,-124.73 -135.51,-156.98 -24.75,-32.25 -67.91,-74.25 -75.07,-89.07 -7.16,-14.82 -20.14,-43.75 19.62,-69.35 0,0 10.76,-9.44 65.48,-7.17 0,0 192.26,-4.37 258.32,-6.34 0,0 41.28,-4.66 56.86,32.43 0,0 4.32,8.38 5.08,15.05 0.75,6.67 2.95,7.48 7.19,3.83 4.23,-3.64 34.39,-24.56 63.01,-32.86 28.62,-8.3 38.07,-10.63 43.28,-11.21 5.21,-0.59 9.09,-0.81 11.06,-2.85zm541.18 116.65c0,0 -32.53,13.23 -39.28,16.47 -44.22,21.23 -26.18,67.75 -2.23,97.32 29.58,36.51 78.5,98.1 92.92,106.8 17.4,10.5 50.59,-1.78 59.4,-11.86 8.81,-10.08 9.5,-30.17 9.99,-47.3 0.49,-17.14 -2.87,-102.73 -4.87,-117.51 -2,-14.78 -7.43,-46.6 -33.16,-56.05 -29.13,-10.71 -51.12,0.26 -82.78,12.14zm-124.83 -99.77c0.52,19.58 6.15,48.87 24.35,59.89 18.2,11.01 23.52,15.53 64.86,-1.53 33.73,-12.24 54.94,-24.1 67.01,-33.27 12.07,-9.17 25.97,-23.69 22.07,-46.63 -3.59,-21.11 -15.75,-35.8 -30.03,-53.56 -14.28,-17.77 -66.93,-79.28 -66.93,-79.28 0,0 -26.16,-35.33 -64.07,-15.2 0,0 -26.47,9.27 -25.27,50.34 1.16,39.78 3.22,78.66 8.03,119.25zm-56.93 107.67c18.77,-2.12 35.7,11.38 37.81,30.15 2.12,18.77 -11.38,35.7 -30.15,37.81 -18.77,2.12 -35.7,-11.38 -37.81,-30.15 -2.12,-18.77 11.38,-35.7 30.15,-37.81zm-98.5 645.84c0,0 12.48,32.8 15.43,39.68 4.29,9.98 12.12,22.7 24.73,25.09 21.3,4.04 33.03,7.86 70.74,-20.17 37.71,-28.03 100.86,-76.01 110.4,-89.9 9.54,-13.89 3.49,-50.17 -11.15,-60.72 -14.64,-10.55 -36.45,-11.06 -46.19,-10.1 -9.74,0.97 -103.37,-2.63 -121.77,2.16 -18.4,4.79 -41.7,7.22 -52.22,32.53 -11.91,28.66 -0.52,49.31 10.03,81.43zm-93.69 129.02c0,0 37.1,-2.48 51.53,-21.05 14.43,-18.57 6.97,-50.4 0.37,-67.72 -6.6,-17.31 -29.44,-62.81 -39.46,-74.18 -10.02,-11.37 -18.98,-15.69 -41.83,-11.26 -22.84,4.43 -37.58,16.96 -54.26,32.49 -16.68,15.54 -76.25,71.84 -76.25,71.84 0,0 -34.87,29.05 -12.03,65.4 0,0 17.42,28.35 54.78,23.06 37.36,-5.29 83.98,-14.33 83.98,-14.33l33.16 -4.26zm-3.25 -322.2c18.77,-2.12 35.7,11.38 37.81,30.15 2.12,18.77 -11.38,35.7 -30.15,37.81 -18.77,2.12 -35.7,-11.38 -37.81,-30.15 -2.12,-18.77 11.38,-35.7 30.15,-37.81zm-457.32 -196.2c18.77,-2.12 35.7,11.38 37.81,30.15 2.12,18.77 -11.38,35.7 -30.15,37.81 -18.77,2.12 -35.7,-11.38 -37.81,-30.15 -2.12,-18.77 11.38,-35.7 30.15,-37.81zm-153.61 135.85c0,0 -32.08,11.41 -38.97,14.31 -39.97,16.8 -28.66,70.82 -4.53,100.24 29.79,36.33 70.6,97.21 85.07,105.83 17.46,10.39 48.22,-0.49 60.18,-11.26 20.27,-18.26 9.84,-67.72 8.25,-95.36 -1.6,-27.75 -4.4,-58.18 -5.61,-66.68 -2.09,-14.77 2.97,-54.11 -23.45,-63.22 -26.96,-9.29 -49.35,4.06 -80.94,16.14zm36.52 -152.26c8.9,10.42 12.31,23.05 9,33.73 -5.78,18.66 -12.43,22.87 -50.37,41.19 -32.85,14.43 -51.57,23.01 -70.26,26.17 -18.7,3.17 -27.46,-3.23 -42.72,-20.81 -12.43,-14.32 -18.8,-36.79 -20.74,-59.5 -1.93,-22.71 -9.16,-95.22 -9.16,-95.22 -4.5,-33.23 4.45,-49.56 34.61,-61.68 0,0 29.93,-13.49 55.23,18.35 26.83,33.76 65.9,84.4 94.4,117.76zm318.94 -438.1c18.77,-2.12 35.7,11.38 37.81,30.15 2.12,18.77 -11.38,35.7 -30.15,37.81 -18.77,2.12 -35.7,-11.38 -37.81,-30.15 -2.12,-18.77 11.38,-35.7 30.15,-37.81zm-36.49 -146.05c0,0 -13.28,-32.48 -15.81,-39.53 -3.68,-10.22 -6.65,-24.86 0.93,-35.22 12.81,-17.49 18.77,-28.29 65.46,-33.56 46.69,-5.27 125.59,-13.32 142.04,-9.69 16.45,3.63 36.8,34.27 33.31,51.98 -3.49,17.71 -19.08,32.97 -26.85,38.92 -7.77,5.94 -73.73,72.5 -90.45,81.56 -16.71,9.06 -35.4,23.19 -60.36,11.88 -28.27,-12.81 -34.05,-35.67 -48.27,-66.35zm-156.34 -31.01c0,0 28.8,-23.52 52.02,-19.8 23.22,3.72 39.51,32.07 46.51,49.22 7,17.15 21.38,65.99 21.82,81.14 0.44,15.15 -3.16,24.42 -22.87,36.78 -19.72,12.36 -39.04,13.27 -61.83,13.31 -22.8,0.04 -104.76,-0.43 -104.76,-0.43 0,0 -45.31,2.58 -53.44,-39.57 0,0 -6.63,-32.61 24.28,-54.25 30.91,-21.64 71.14,-46.87 71.14,-46.87l27.14 -19.53z"/>
   <g>
    <g>
     <path class="fil2" d="M551.34 777.27c4.86,-15.86 9.63,-31.74 14.38,-47.63 10.8,-36.16 21.69,-72.31 31.84,-108.66l0.22 -0.76c4.24,-13.9 12.82,-25.58 26,-32.16l75.15 -37.51c22.91,-11.05 48.11,4.62 50.08,29.55l26.96 341.26c1.89,19.56 -7.04,36.41 -24.71,45.24l-73.93 36.91c-20.73,10.35 -43.08,-0.28 -49.31,-20.91 -4.29,5.41 -9.68,9.91 -16.22,13.18l-49.84 24.88c-11.76,5.87 -24.45,6.27 -35.02,0.88l1.4 23.97c1.7,19.57 -7.62,36.18 -25.19,44.95l-64.01 31.95c-10.97,5.47 -23.89,4.98 -34.24,-1.68 -9.93,-6.39 -14.69,-15.85 -15.77,-27.37l-0.07 -0.85 -23.56 -342.62c-1.86,-19.35 6.71,-36.24 24.29,-45.01l54.66 -27.29c16.96,-8.47 35.93,-5.15 47.49,10.39l0.7 0.94 0.63 0.98c15.21,23.66 30.91,47.02 46.6,70.37 3.82,5.68 7.64,11.36 11.49,17.02z"/>
    </g>
    <path class="fil3" d="M557.67 819.1c1.44,-4.49 2.86,-8.98 4.27,-13.47 7.37,-23.49 14.47,-47.09 21.52,-70.68 10.82,-36.21 21.77,-72.59 31.93,-108.99l0.1 -0.34c2.74,-8.98 7.96,-16.7 16.56,-20.99l74.92 -37.4c11.22,-5.41 22.63,2.36 23.57,14.33l26.99 341.58c1.15,11.92 -3.73,21.49 -14.55,26.89l-73.93 36.9c-11.68,5.83 -22.89,-1.06 -24.11,-13.79l-5.03 -67.69 -19.92 53.03c-2.8,8.87 -7.94,16.46 -16.47,20.72l-49.84 24.88c-9.08,4.53 -18.74,3.84 -25.07,-5.05l-0.2 -0.29 -23.49 -36.38 4.97 84.74c1.04,11.98 -4.2,21.38 -15.01,26.78l-64.01 31.95c-5.11,2.55 -11.06,2.47 -15.94,-0.68 -5.17,-3.33 -6.83,-7.9 -7.37,-13.54l-0.03 -0.38 -23.6 -343.12c-1.12,-11.69 3.4,-21.32 14.13,-26.68l54.66 -27.29c8.83,-4.41 18.13,-3.49 24.37,4.88l0.32 0.43 0.29 0.45c15.24,23.73 31.08,47.28 46.81,70.68 10.08,15 20.22,29.98 30.57,44.8 0.87,1.24 1.74,2.48 2.61,3.72z"/>
    <g>
     <path class="fil4" d="M424.09 1092.28l64.01 -31.95c5.23,-2.61 7.24,-6.14 6.67,-12.09l-8.34 -142.44 54.51 84.44c1.69,2.37 3.61,1.47 5.98,0.29l49.84 -24.88c4.8,-2.4 7.36,-7.04 8.9,-12.08l44.27 -117.84 10.09 135.97c0.21,2.21 0.31,2.67 2.27,1.69l73.93 -36.9c5.11,-2.55 6.8,-6.13 6.24,-11.89l-27.01 -341.84c-0.13,-1.69 -0.69,-2.46 -1.89,-1.88l-74.74 37.31c-4.8,2.4 -7.36,7.04 -8.83,11.85 -6.78,24.31 -63.87,219.73 -67.51,220.11 -5.21,-1.68 -86.74,-125.24 -97.53,-142.06 -1.59,-2.14 -3.12,-1.56 -5.46,-0.38l-54.66 27.29c-4.97,2.48 -6.35,6.12 -5.82,11.67l23.63 343.53c0.16,1.71 0.07,2.79 1.46,2.09z"/>
     <path id="1" class="fil5" d="M490.44 1065.04l-64.01 31.95 -4.7 -9.41 64.01 -31.95 4.7 9.41zm-0.93 -16.49l10.5 -0.62 -0.02 -0.2 0.06 0.68 0.04 0.68 0.02 0.67 0 0.67 -0.02 0.67 -0.04 0.66 -0.07 0.66 -0.09 0.66 -0.11 0.65 -0.14 0.65 -0.17 0.64 -0.2 0.64 -0.23 0.62 -0.25 0.62 -0.28 0.6 -0.31 0.59 -0.34 0.57 -0.36 0.55 -0.39 0.54 -0.41 0.52 -0.43 0.5 -0.45 0.48 -0.47 0.46 -0.49 0.44 -0.51 0.42 -0.52 0.4 -0.53 0.38 -0.55 0.37 -0.56 0.35 -0.57 0.33 -0.59 0.32 -0.6 0.31 -4.7 -9.41 0.36 -0.19 0.34 -0.18 0.32 -0.19 0.29 -0.18 0.26 -0.17 0.24 -0.18 0.23 -0.17 0.2 -0.17 0.18 -0.16 0.16 -0.16 0.14 -0.15 0.13 -0.15 0.12 -0.15 0.1 -0.15 0.1 -0.15 0.09 -0.15 0.08 -0.16 0.07 -0.16 0.07 -0.17 0.06 -0.18 0.06 -0.19 0.06 -0.21 0.05 -0.22 0.04 -0.25 0.04 -0.26 0.03 -0.28 0.02 -0.3 0.01 -0.33 0 -0.35 -0.01 -0.37 -0.02 -0.39 -0.03 -0.42 -0.02 -0.2zm0.02 0.2l-0.01 -0.1 -0.01 -0.1 0.02 0.2zm2.15 -143.25l8.34 142.44 -10.5 0.62 -8.34 -142.44 9.67 -3.16 0.83 2.55zm-10.5 0.62l-1.17 -19.96 10.84 16.79 -9.67 3.16zm55.34 86.99l-54.51 -84.44 8.84 -5.71 54.51 84.44 -8.7 5.91 -0.14 -0.2zm0.14 0.2l-0.07 -0.1 -0.07 -0.1 0.14 0.2zm7.91 -7.47l4.7 9.41 -0 0 -0.23 0.12 -0.24 0.12 -0.25 0.12 -0.25 0.12 -0.27 0.13 -0.28 0.12 -0.29 0.13 -0.31 0.12 -0.31 0.12 -0.33 0.12 -0.35 0.11 -0.38 0.11 -0.39 0.1 -0.41 0.08 -0.44 0.07 -0.47 0.05 -0.5 0.02 -0.49 -0.01 -0.53 -0.04 -0.55 -0.08 -0.53 -0.11 -0.55 -0.16 -0.54 -0.2 -0.52 -0.24 -0.5 -0.28 -0.47 -0.31 -0.45 -0.34 -0.42 -0.36 -0.39 -0.37 -0.36 -0.39 -0.33 -0.4 -0.31 -0.41 8.57 -6.11 0.01 0.02 -0.01 -0.01 -0.04 -0.04 -0.06 -0.06 -0.09 -0.07 -0.11 -0.09 -0.14 -0.09 -0.16 -0.09 -0.17 -0.08 -0.2 -0.07 -0.2 -0.06 -0.18 -0.04 -0.19 -0.03 -0.17 -0.01 -0.13 -0 -0.13 0.01 -0.09 0.01 -0.06 0.01 -0.03 0 -0 0 0.01 -0 0.04 -0.01 0.07 -0.02 0.09 -0.04 0.1 -0.04 0.12 -0.05 0.14 -0.06 0.15 -0.07 0.18 -0.08 0.18 -0.09 0.2 -0.1 0.21 -0.1 -0 0zm54.54 -15.46l-49.84 24.88 -4.7 -9.41 49.84 -24.88 4.7 9.41zm1.62 -18.64l9.85 3.7 0.11 -0.32 -0.17 0.54 -0.18 0.54 -0.19 0.54 -0.19 0.53 -0.2 0.54 -0.21 0.54 -0.22 0.53 -0.23 0.53 -0.25 0.53 -0.26 0.53 -0.27 0.53 -0.28 0.53 -0.3 0.52 -0.31 0.51 -0.32 0.51 -0.34 0.51 -0.35 0.5 -0.37 0.5 -0.38 0.49 -0.4 0.48 -0.42 0.48 -0.43 0.46 -0.45 0.45 -0.47 0.44 -0.49 0.43 -0.5 0.41 -0.52 0.4 -0.54 0.38 -0.56 0.37 -0.57 0.35 -0.59 0.33 -0.61 0.32 -4.7 -9.41 0.28 -0.15 0.27 -0.15 0.26 -0.16 0.25 -0.17 0.25 -0.18 0.24 -0.18 0.23 -0.19 0.23 -0.2 0.22 -0.21 0.22 -0.22 0.22 -0.23 0.21 -0.23 0.21 -0.25 0.2 -0.26 0.2 -0.27 0.2 -0.28 0.19 -0.28 0.18 -0.29 0.18 -0.31 0.18 -0.31 0.17 -0.32 0.17 -0.33 0.16 -0.34 0.16 -0.35 0.16 -0.36 0.15 -0.37 0.15 -0.37 0.14 -0.38 0.14 -0.39 0.13 -0.39 0.13 -0.4 0.13 -0.41 0.11 -0.32zm-0.11 0.32l0.05 -0.16 0.06 -0.16 -0.11 0.32zm54.23 -114.46l-44.27 117.84 -9.85 -3.7 44.27 -117.84 10.17 1.46 -0.32 2.24zm-9.85 -3.7l8.4 -22.37 1.77 23.83 -10.17 -1.46zm9.77 138.2l-10.09 -135.97 10.49 -0.78 10.09 135.97 -10.48 0.89 -0.01 -0.11zm0.01 0.11l-0 -0.05 -0 -0.07 0.01 0.11zm5.16 -3.52l4.7 9.41 0 0 -0.25 0.12 -0.25 0.12 -0.27 0.12 -0.28 0.12 -0.3 0.12 -0.31 0.11 -0.36 0.11 -0.42 0.1 -0.48 0.08 -0.55 0.05 -0.6 -0 -0.7 -0.08 -0.76 -0.18 -0.78 -0.31 -0.72 -0.41 -0.67 -0.52 -0.54 -0.57 -0.39 -0.51 -0.32 -0.53 -0.24 -0.5 -0.16 -0.42 -0.12 -0.36 -0.1 -0.35 -0.07 -0.31 -0.05 -0.28 -0.04 -0.27 -0.03 -0.24 -0.03 -0.23 -0.03 -0.22 -0.02 -0.22 -0.02 -0.22 -0.02 -0.21 10.47 -1.01 0.02 0.19 0.02 0.16 0.02 0.14 0.01 0.12 0.01 0.1 0.01 0.06 0 0.01 -0 -0.01 -0.02 -0.07 -0.03 -0.13 -0.05 -0.15 -0.09 -0.23 -0.16 -0.33 -0.23 -0.38 -0.29 -0.39 -0.44 -0.46 -0.55 -0.43 -0.59 -0.33 -0.64 -0.25 -0.61 -0.15 -0.53 -0.06 -0.43 -0 -0.36 0.03 -0.27 0.05 -0.2 0.05 -0.11 0.03 -0.05 0.02 -0.02 0.01 0.01 -0.01 0.05 -0.02 0.09 -0.04 0.11 -0.05 0 0zm78.63 -27.49l-73.93 36.9 -4.7 -9.41 73.93 -36.9 0 0 4.7 9.41zm-1.35 -16.18l10.49 -0.83 -0.01 -0.09 0.06 0.65 0.04 0.65 0.02 0.65 0.01 0.64 -0.01 0.64 -0.03 0.64 -0.05 0.63 -0.07 0.63 -0.1 0.63 -0.12 0.63 -0.15 0.62 -0.17 0.62 -0.2 0.61 -0.23 0.61 -0.26 0.6 -0.28 0.58 -0.31 0.57 -0.34 0.56 -0.37 0.55 -0.39 0.52 -0.41 0.5 -0.44 0.49 -0.46 0.47 -0.47 0.44 -0.5 0.43 -0.51 0.41 -0.52 0.39 -0.54 0.37 -0.56 0.36 -0.57 0.34 -0.58 0.32 -0.6 0.31 -4.7 -9.41 0.34 -0.17 0.32 -0.17 0.29 -0.17 0.26 -0.17 0.24 -0.16 0.22 -0.16 0.19 -0.15 0.17 -0.15 0.16 -0.15 0.14 -0.14 0.12 -0.13 0.11 -0.14 0.1 -0.14 0.09 -0.13 0.08 -0.14 0.08 -0.14 0.07 -0.15 0.07 -0.15 0.06 -0.16 0.06 -0.18 0.05 -0.2 0.05 -0.21 0.04 -0.22 0.04 -0.24 0.03 -0.27 0.02 -0.29 0.02 -0.31 0.01 -0.33 -0 -0.35 -0.01 -0.37 -0.02 -0.39 -0.03 -0.42 -0.01 -0.09zm0.01 0.09l-0 -0.05 -0 -0.04 0.01 0.09zm-16.53 -342.76l27.01 341.84 -10.49 0.83 -27.01 -341.84 -0 -0.01 10.49 -0.82zm-10.49 0.83l0 0 -0 -0.01 0 0.01zm5.71 2.41l-4.7 -9.41 0.07 -0.03 0.34 -0.15 0.36 -0.14 0.38 -0.13 0.41 -0.11 0.45 -0.09 0.51 -0.06 0.5 -0.02 0.53 0.02 0.58 0.07 0.58 0.13 0.57 0.19 0.54 0.24 0.51 0.29 0.48 0.33 0.42 0.35 0.36 0.36 0.33 0.38 0.27 0.37 0.23 0.37 0.2 0.36 0.16 0.34 0.14 0.33 0.12 0.32 0.1 0.31 0.08 0.29 0.07 0.28 0.06 0.28 0.05 0.29 0.04 0.26 0.03 0.25 0.03 0.27 0.02 0.25 -10.49 0.81 -0 -0.06 -0 -0.03 -0 -0.03 -0 -0.02 0 0.02 0.01 0.02 0.01 0.03 0.02 0.07 0.03 0.09 0.04 0.11 0.06 0.13 0.07 0.15 0.11 0.19 0.13 0.21 0.17 0.23 0.21 0.25 0.24 0.24 0.3 0.25 0.35 0.24 0.37 0.21 0.4 0.17 0.42 0.14 0.42 0.09 0.42 0.05 0.36 0.01 0.32 -0.02 0.32 -0.04 0.25 -0.05 0.21 -0.06 0.17 -0.06 0.14 -0.06 0.11 -0.05 0.07 -0.03zm-4.7 -9.41l0.07 -0.03 -0 0 -0.07 0.03zm-74.74 37.31l74.74 -37.31 4.7 9.41 -74.74 37.31 -4.7 -9.41 0 0zm-1.41 17.97l-10.13 -2.83 0.03 -0.12 0.16 -0.52 0.17 -0.52 0.18 -0.52 0.19 -0.52 0.2 -0.52 0.21 -0.52 0.22 -0.53 0.23 -0.52 0.24 -0.52 0.25 -0.52 0.27 -0.52 0.28 -0.51 0.29 -0.51 0.31 -0.51 0.32 -0.5 0.34 -0.5 0.35 -0.5 0.37 -0.49 0.38 -0.48 0.4 -0.48 0.42 -0.47 0.43 -0.46 0.45 -0.45 0.47 -0.44 0.48 -0.42 0.5 -0.41 0.52 -0.4 0.54 -0.39 0.56 -0.37 0.57 -0.35 0.59 -0.33 0.6 -0.32 4.7 9.41 -0.28 0.15 -0.27 0.15 -0.26 0.16 -0.26 0.17 -0.25 0.18 -0.24 0.18 -0.23 0.19 -0.23 0.2 -0.22 0.21 -0.22 0.22 -0.22 0.23 -0.21 0.24 -0.2 0.24 -0.2 0.26 -0.2 0.26 -0.19 0.27 -0.19 0.28 -0.18 0.29 -0.18 0.3 -0.17 0.3 -0.17 0.32 -0.16 0.32 -0.16 0.33 -0.16 0.34 -0.15 0.34 -0.15 0.35 -0.14 0.36 -0.14 0.36 -0.13 0.37 -0.13 0.37 -0.12 0.38 -0.12 0.38 0.03 -0.12zm-10.13 -2.83l0.02 -0.08 0.01 -0.03 -0.03 0.12zm-64.06 226.54l3.22 -10.02 -2.16 -0.22 -3.54 2.05 0.53 -1.14 0.98 -2.48 1.28 -3.52 1.54 -4.43 1.76 -5.26 1.96 -6.01 2.15 -6.7 2.31 -7.31 2.45 -7.85 2.58 -8.32 2.68 -8.73 2.77 -9.07 2.83 -9.34 2.88 -9.55 2.91 -9.69 2.92 -9.76 2.91 -9.76 2.88 -9.7 2.83 -9.57 2.77 -9.37 2.68 -9.1 2.58 -8.77 2.45 -8.37 2.31 -7.91 2.15 -7.37 1.97 -6.77 1.77 -6.1 1.55 -5.37 1.31 -4.57 1.05 -3.69 0.77 -2.75 10.13 2.83 -0.79 2.79 -1.06 3.72 -1.31 4.58 -1.55 5.38 -1.77 6.11 -1.97 6.78 -2.15 7.38 -2.31 7.91 -2.46 8.38 -2.58 8.78 -2.68 9.11 -2.77 9.38 -2.84 9.58 -2.88 9.71 -2.91 9.77 -2.92 9.77 -2.91 9.7 -2.89 9.56 -2.84 9.36 -2.77 9.09 -2.69 8.75 -2.59 8.35 -2.46 7.88 -2.32 7.34 -2.16 6.74 -1.98 6.08 -1.79 5.35 -1.58 4.56 -1.36 3.73 -1.14 2.88 -1.05 2.2 -4.53 3.24 -2.16 -0.22zm2.16 0.22l-1.1 0.11 -1.05 -0.34 2.16 0.22zm-102.29 -144.15l8.43 -6.29 0.21 0.3 1.2 1.86 1.6 2.45 1.96 3 2.29 3.5 2.6 3.96 2.88 4.38 3.13 4.75 3.36 5.08 3.56 5.37 3.73 5.62 3.87 5.83 3.99 5.99 4.09 6.12 4.15 6.2 4.19 6.24 4.2 6.23 4.18 6.19 4.14 6.1 4.06 5.97 3.97 5.8 3.84 5.59 3.69 5.33 3.51 5.03 3.3 4.69 3.06 4.31 2.8 3.88 2.51 3.4 2.18 2.88 1.81 2.3 1.37 1.63 0.75 0.79 -1.24 -0.63 -3.22 10.02 -2.66 -1.64 -1.51 -1.56 -1.67 -1.99 -1.97 -2.5 -2.28 -3.01 -2.57 -3.5 -2.85 -3.95 -3.1 -4.36 -3.33 -4.73 -3.53 -5.07 -3.71 -5.36 -3.86 -5.61 -3.98 -5.82 -4.08 -5.99 -4.15 -6.12 -4.19 -6.2 -4.2 -6.25 -4.19 -6.25 -4.16 -6.21 -4.09 -6.13 -4 -6 -3.88 -5.84 -3.74 -5.63 -3.56 -5.38 -3.36 -5.09 -3.14 -4.76 -2.89 -4.39 -2.61 -3.97 -2.3 -3.51 -1.97 -3.02 -1.61 -2.48 -1.23 -1.9 0.21 0.3zm8.43 -6.29l0.11 0.15 0.1 0.16 -0.21 -0.3zm-7.33 7.47l-4.7 -9.41 0 0 0.24 -0.12 0.25 -0.12 0.26 -0.12 0.26 -0.12 0.26 -0.12 0.28 -0.12 0.3 -0.12 0.3 -0.12 0.31 -0.11 0.35 -0.11 0.35 -0.1 0.36 -0.09 0.41 -0.09 0.42 -0.07 0.43 -0.05 0.47 -0.03 0.48 0 0.49 0.03 0.51 0.07 0.53 0.11 0.52 0.14 0.49 0.18 0.48 0.21 0.47 0.25 0.45 0.28 0.41 0.29 0.39 0.31 0.37 0.32 0.34 0.33 0.31 0.33 0.3 0.35 0.28 0.35 -8.43 6.29 -0.02 -0.03 -0 -0 0.01 0.01 0.04 0.04 0.07 0.06 0.09 0.07 0.11 0.08 0.15 0.09 0.17 0.09 0.17 0.07 0.19 0.07 0.21 0.06 0.21 0.04 0.2 0.03 0.16 0.01 0.16 0 0.15 -0.01 0.09 -0.01 0.08 -0.01 0.06 -0.01 0.01 -0 -0.01 0 -0.02 0.01 -0.06 0.02 -0.08 0.03 -0.09 0.04 -0.12 0.05 -0.14 0.06 -0.15 0.07 -0.16 0.08 -0.18 0.09 -0.2 0.1 0 0zm-59.36 17.87l54.66 -27.29 4.7 9.41 -54.66 27.29 -0 0 -4.7 -9.41zm1.78 16.02l-10.5 0.72 0.01 0.14 -0.05 -0.62 -0.04 -0.62 -0.03 -0.61 -0.01 -0.61 0 -0.61 0.02 -0.61 0.04 -0.6 0.06 -0.61 0.08 -0.62 0.1 -0.61 0.13 -0.61 0.15 -0.61 0.18 -0.6 0.2 -0.59 0.23 -0.6 0.26 -0.59 0.28 -0.57 0.31 -0.56 0.34 -0.55 0.37 -0.53 0.4 -0.52 0.42 -0.5 0.44 -0.48 0.46 -0.46 0.49 -0.44 0.5 -0.42 0.52 -0.4 0.54 -0.38 0.56 -0.36 0.57 -0.34 0.58 -0.33 0.6 -0.31 4.7 9.41 -0.31 0.16 -0.29 0.16 -0.26 0.16 -0.23 0.15 -0.21 0.15 -0.19 0.15 -0.17 0.14 -0.15 0.13 -0.13 0.13 -0.12 0.13 -0.1 0.12 -0.09 0.12 -0.09 0.13 -0.08 0.12 -0.07 0.13 -0.07 0.14 -0.06 0.14 -0.06 0.15 -0.06 0.17 -0.05 0.18 -0.05 0.2 -0.04 0.22 -0.04 0.23 -0.03 0.24 -0.03 0.27 -0.02 0.3 -0.01 0.31 -0 0.33 0.01 0.35 0.02 0.37 0.03 0.39 0.03 0.41 0.01 0.14zm-0.01 -0.14l0.01 0.08 0 0.07 -0.01 -0.14zm13.15 344.4l-23.63 -343.53 10.5 -0.72 23.63 343.53 -10.49 0.86 -0.01 -0.13zm0.01 0.13l-0.01 -0.07 -0 -0.06 0.01 0.13zm4.35 -3.11l4.7 9.41 -0 0 -0.32 0.15 -0.34 0.14 -0.39 0.14 -0.45 0.13 -0.46 0.1 -0.59 0.08 -0.66 0.02 -0.72 -0.07 -0.79 -0.18 -0.78 -0.3 -0.74 -0.42 -0.65 -0.5 -0.52 -0.53 -0.41 -0.54 -0.31 -0.51 -0.22 -0.45 -0.17 -0.43 -0.12 -0.37 -0.09 -0.32 -0.07 -0.31 -0.05 -0.25 -0.04 -0.24 -0.03 -0.22 -0.02 -0.18 -0.02 -0.2 -0.02 -0.18 -0.01 -0.15 -0.01 -0.16 -0.01 -0.15 -0.01 -0.13 -0.01 -0.14 -0.01 -0.13 10.48 -0.99 0.02 0.19 0.01 0.17 0.01 0.17 0.01 0.15 0.01 0.13 0.01 0.12 0.01 0.08 0.01 0.06 0.01 0.06 0 0.01 -0 -0.03 -0.01 -0.05 -0.03 -0.11 -0.04 -0.14 -0.07 -0.2 -0.11 -0.27 -0.15 -0.31 -0.23 -0.38 -0.32 -0.42 -0.43 -0.44 -0.54 -0.42 -0.62 -0.36 -0.65 -0.25 -0.66 -0.15 -0.57 -0.05 -0.5 0.01 -0.42 0.05 -0.27 0.06 -0.25 0.07 -0.17 0.06 -0.11 0.04 -0.07 0.03 -0 0z"/>
    </g>
    <g>
     <path class="fil2" d="M927.84 593.04c4.86,-15.86 9.63,-31.74 14.38,-47.63 10.8,-36.16 21.69,-72.31 31.84,-108.66l0.22 -0.76c4.24,-13.9 12.82,-25.58 26,-32.16l75.15 -37.51c22.91,-11.05 48.11,4.62 50.08,29.55l26.96 341.26c1.89,19.56 -7.04,36.41 -24.71,45.24l-73.93 36.91c-20.73,10.35 -43.08,-0.28 -49.31,-20.91 -4.29,5.41 -9.68,9.91 -16.22,13.18l-49.84 24.88c-11.76,5.87 -24.45,6.27 -35.02,0.88l1.4 23.97c1.7,19.57 -7.62,36.18 -25.19,44.95l-64.01 31.95c-10.97,5.47 -23.89,4.98 -34.24,-1.68 -9.93,-6.39 -14.69,-15.85 -15.77,-27.37l-0.07 -0.85 -23.56 -342.62c-1.86,-19.35 6.71,-36.24 24.29,-45.01l54.66 -27.29c16.96,-8.47 35.93,-5.15 47.49,10.39l0.7 0.94 0.63 0.98c15.21,23.67 30.91,47.02 46.6,70.37 3.82,5.68 7.64,11.36 11.48,17.02z"/>
    </g>
    <path class="fil3" d="M934.17 634.87c1.44,-4.49 2.86,-8.98 4.27,-13.47 7.37,-23.49 14.47,-47.09 21.52,-70.68 10.81,-36.21 21.77,-72.59 31.93,-108.99l0.1 -0.34c2.74,-8.98 7.96,-16.7 16.56,-20.99l74.92 -37.4c11.22,-5.41 22.63,2.36 23.57,14.33l26.99 341.58c1.15,11.92 -3.73,21.49 -14.55,26.89l-73.93 36.9c-11.68,5.83 -22.89,-1.06 -24.11,-13.79l-5.03 -67.69 -19.92 53.03c-2.8,8.87 -7.94,16.46 -16.47,20.72l-49.84 24.88c-9.08,4.53 -18.74,3.84 -25.07,-5.05l-0.2 -0.29 -23.49 -36.38 4.97 84.74c1.04,11.98 -4.2,21.38 -15.01,26.78l-64.01 31.95c-5.11,2.55 -11.06,2.47 -15.94,-0.68 -5.17,-3.33 -6.83,-7.9 -7.37,-13.54l-0.03 -0.38 -23.6 -343.12c-1.13,-11.69 3.4,-21.32 14.13,-26.68l54.66 -27.29c8.83,-4.41 18.13,-3.49 24.37,4.88l0.32 0.43 0.29 0.45c15.24,23.73 31.08,47.28 46.81,70.68 10.08,15 20.22,29.98 30.57,44.8 0.87,1.24 1.74,2.48 2.61,3.72z"/>
    <g>
     <path class="fil4" d="M800.59 908.05l64.01 -31.95c5.23,-2.61 7.24,-6.14 6.67,-12.09l-8.34 -142.44 54.51 84.44c1.69,2.37 3.61,1.47 5.98,0.29l49.84 -24.88c4.8,-2.4 7.36,-7.04 8.9,-12.08l44.27 -117.84 10.09 135.97c0.21,2.21 0.31,2.67 2.27,1.69l73.93 -36.9c5.11,-2.55 6.8,-6.13 6.24,-11.88l-27.01 -341.84c-0.13,-1.68 -0.69,-2.46 -1.89,-1.88l-74.74 37.31c-4.8,2.4 -7.36,7.04 -8.83,11.85 -6.79,24.31 -63.87,219.73 -67.51,220.11 -5.21,-1.68 -86.74,-125.24 -97.53,-142.06 -1.59,-2.14 -3.12,-1.56 -5.46,-0.38l-54.66 27.29c-4.97,2.48 -6.35,6.12 -5.82,11.67l23.63 343.53c0.16,1.71 0.07,2.79 1.46,2.09z"/>
     <path id="1" class="fil5" d="M866.94 880.81l-64.01 31.95 -4.7 -9.41 64.01 -31.95 4.7 9.41zm-0.93 -16.49l10.5 -0.62 -0.02 -0.2 0.06 0.68 0.04 0.68 0.02 0.67 0 0.67 -0.02 0.67 -0.04 0.66 -0.07 0.66 -0.09 0.65 -0.12 0.66 -0.14 0.64 -0.17 0.64 -0.2 0.64 -0.23 0.62 -0.25 0.62 -0.28 0.6 -0.31 0.59 -0.34 0.57 -0.36 0.55 -0.39 0.54 -0.41 0.52 -0.43 0.5 -0.45 0.48 -0.47 0.46 -0.49 0.44 -0.5 0.42 -0.52 0.4 -0.53 0.38 -0.55 0.37 -0.56 0.35 -0.57 0.33 -0.59 0.32 -0.6 0.31 -4.7 -9.41 0.36 -0.19 0.34 -0.18 0.32 -0.19 0.29 -0.18 0.26 -0.17 0.24 -0.18 0.22 -0.17 0.2 -0.17 0.18 -0.16 0.16 -0.16 0.14 -0.15 0.13 -0.15 0.12 -0.15 0.1 -0.15 0.1 -0.15 0.09 -0.15 0.08 -0.15 0.08 -0.16 0.07 -0.17 0.06 -0.18 0.06 -0.19 0.05 -0.21 0.05 -0.23 0.04 -0.24 0.04 -0.26 0.03 -0.28 0.02 -0.3 0.01 -0.33 0 -0.35 -0.01 -0.37 -0.02 -0.39 -0.03 -0.42 -0.02 -0.2zm0.02 0.2l-0.01 -0.1 -0.01 -0.1 0.02 0.2zm2.15 -143.25l8.34 142.44 -10.5 0.62 -8.34 -142.44 9.67 -3.16 0.83 2.55zm-10.5 0.62l-1.17 -19.96 10.84 16.79 -9.67 3.16zm55.34 86.99l-54.51 -84.44 8.84 -5.71 54.51 84.44 -8.7 5.91 -0.14 -0.2zm0.14 0.2l-0.07 -0.1 -0.07 -0.1 0.14 0.2zm7.91 -7.47l4.7 9.41 -0 0 -0.23 0.12 -0.24 0.12 -0.25 0.12 -0.25 0.12 -0.27 0.13 -0.28 0.12 -0.29 0.13 -0.31 0.12 -0.31 0.12 -0.33 0.12 -0.35 0.11 -0.38 0.11 -0.39 0.09 -0.41 0.08 -0.44 0.07 -0.47 0.05 -0.5 0.02 -0.49 -0.01 -0.53 -0.04 -0.55 -0.08 -0.53 -0.11 -0.55 -0.16 -0.55 -0.21 -0.52 -0.24 -0.5 -0.28 -0.47 -0.31 -0.45 -0.34 -0.42 -0.36 -0.39 -0.37 -0.36 -0.39 -0.33 -0.4 -0.31 -0.41 8.57 -6.11 0.01 0.02 -0.01 -0.01 -0.04 -0.04 -0.06 -0.06 -0.09 -0.07 -0.11 -0.09 -0.14 -0.09 -0.16 -0.09 -0.17 -0.08 -0.2 -0.08 -0.2 -0.06 -0.18 -0.04 -0.19 -0.03 -0.17 -0.01 -0.13 -0 -0.13 0.01 -0.1 0.01 -0.06 0.01 -0.03 0 -0 0 0.01 -0 0.04 -0.01 0.07 -0.02 0.09 -0.04 0.1 -0.04 0.12 -0.05 0.14 -0.06 0.15 -0.07 0.18 -0.08 0.18 -0.09 0.2 -0.1 0.21 -0.1 -0 0zm54.54 -15.46l-49.84 24.88 -4.7 -9.41 49.84 -24.88 4.7 9.41zm1.62 -18.64l9.85 3.7 0.11 -0.32 -0.17 0.54 -0.18 0.54 -0.19 0.54 -0.19 0.54 -0.2 0.54 -0.21 0.54 -0.22 0.53 -0.23 0.53 -0.25 0.54 -0.26 0.53 -0.27 0.53 -0.28 0.53 -0.29 0.52 -0.31 0.52 -0.32 0.51 -0.34 0.51 -0.35 0.5 -0.37 0.5 -0.38 0.49 -0.4 0.48 -0.42 0.47 -0.43 0.46 -0.45 0.45 -0.47 0.44 -0.49 0.43 -0.5 0.41 -0.52 0.4 -0.54 0.38 -0.56 0.37 -0.57 0.35 -0.59 0.33 -0.61 0.32 -4.7 -9.41 0.28 -0.15 0.27 -0.15 0.26 -0.16 0.25 -0.17 0.25 -0.18 0.24 -0.18 0.23 -0.19 0.23 -0.2 0.22 -0.21 0.22 -0.22 0.21 -0.23 0.21 -0.24 0.21 -0.25 0.2 -0.26 0.2 -0.26 0.2 -0.28 0.19 -0.28 0.18 -0.29 0.18 -0.3 0.18 -0.32 0.17 -0.32 0.17 -0.33 0.17 -0.34 0.16 -0.34 0.16 -0.36 0.15 -0.37 0.15 -0.37 0.14 -0.38 0.14 -0.39 0.13 -0.39 0.13 -0.4 0.13 -0.41 0.11 -0.32zm-0.11 0.32l0.05 -0.17 0.06 -0.15 -0.11 0.32zm54.22 -114.46l-44.27 117.84 -9.85 -3.7 44.27 -117.84 10.17 1.46 -0.32 2.24zm-9.85 -3.7l8.4 -22.37 1.77 23.83 -10.17 -1.46zm9.77 138.2l-10.09 -135.97 10.49 -0.78 10.09 135.97 -10.48 0.89 -0.01 -0.12zm0.01 0.12l-0 -0.04 -0.01 -0.07 0.01 0.12zm5.16 -3.52l4.7 9.41 0 0 -0.25 0.12 -0.25 0.12 -0.27 0.12 -0.28 0.12 -0.29 0.11 -0.32 0.11 -0.37 0.11 -0.4 0.1 -0.48 0.08 -0.53 0.05 -0.63 0 -0.7 -0.08 -0.73 -0.17 -0.79 -0.31 -0.76 -0.44 -0.64 -0.5 -0.52 -0.54 -0.43 -0.57 -0.31 -0.53 -0.22 -0.45 -0.17 -0.43 -0.12 -0.38 -0.09 -0.33 -0.07 -0.32 -0.05 -0.28 -0.04 -0.26 -0.04 -0.25 -0.03 -0.23 -0.03 -0.22 -0.02 -0.22 -0.02 -0.22 -0.02 -0.21 10.47 -1.01 0.02 0.19 0.02 0.16 0.02 0.14 0.01 0.13 0.01 0.1 0.01 0.05 0 0.03 -0 -0.02 -0.02 -0.08 -0.03 -0.1 -0.06 -0.18 -0.09 -0.24 -0.14 -0.28 -0.22 -0.38 -0.33 -0.44 -0.41 -0.43 -0.52 -0.41 -0.63 -0.36 -0.65 -0.25 -0.58 -0.14 -0.54 -0.06 -0.45 -0 -0.33 0.03 -0.27 0.05 -0.18 0.04 -0.13 0.04 -0.06 0.02 -0.01 0 0.01 -0.01 0.05 -0.02 0.09 -0.04 0.11 -0.05 0 0zm78.63 -27.49l-73.93 36.9 -4.7 -9.41 73.93 -36.9 4.7 9.41zm-1.35 -16.18l10.49 -0.83 -0.01 -0.09 0.06 0.65 0.04 0.65 0.02 0.65 0.01 0.64 -0.01 0.64 -0.03 0.64 -0.05 0.63 -0.07 0.63 -0.1 0.64 -0.12 0.63 -0.15 0.62 -0.17 0.62 -0.2 0.62 -0.23 0.6 -0.26 0.6 -0.29 0.59 -0.31 0.58 -0.34 0.56 -0.37 0.54 -0.39 0.52 -0.42 0.51 -0.44 0.49 -0.46 0.47 -0.47 0.45 -0.5 0.43 -0.51 0.41 -0.53 0.39 -0.54 0.37 -0.56 0.36 -0.57 0.34 -0.59 0.32 -0.6 0.31 -4.7 -9.41 0.34 -0.17 0.31 -0.17 0.29 -0.17 0.26 -0.17 0.24 -0.17 0.22 -0.16 0.19 -0.15 0.17 -0.15 0.16 -0.15 0.14 -0.14 0.12 -0.14 0.11 -0.14 0.1 -0.14 0.09 -0.14 0.08 -0.13 0.08 -0.14 0.07 -0.14 0.07 -0.16 0.06 -0.17 0.06 -0.18 0.05 -0.19 0.05 -0.21 0.04 -0.23 0.04 -0.24 0.03 -0.27 0.02 -0.29 0.02 -0.31 0.01 -0.33 -0 -0.35 -0.01 -0.37 -0.02 -0.39 -0.03 -0.42 -0.01 -0.09zm0.01 0.09l-0 -0.05 -0 -0.04 0.01 0.09zm-16.53 -342.76l27.01 341.84 -10.49 0.83 -27.01 -341.84 -0 -0.01 10.49 -0.82zm-10.49 0.83l-0 -0.01 -0.01 -0.17 0.01 0.17zm5.71 2.41l-4.7 -9.41 0.07 -0.03 0.34 -0.15 0.36 -0.14 0.38 -0.13 0.41 -0.11 0.45 -0.09 0.51 -0.06 0.52 -0.02 0.51 0.02 0.56 0.07 0.6 0.13 0.57 0.19 0.55 0.24 0.5 0.28 0.48 0.33 0.43 0.37 0.35 0.35 0.32 0.37 0.28 0.38 0.24 0.38 0.2 0.36 0.15 0.31 0.15 0.34 0.12 0.33 0.09 0.29 0.08 0.3 0.07 0.3 0.06 0.28 0.05 0.26 0.04 0.26 0.03 0.27 0.03 0.27 0.02 0.25 -10.49 0.82 -0 -0.06 -0 -0.03 -0 -0.02 -0 -0.02 -0 -0.01 0.01 0.03 0.02 0.06 0.02 0.07 0.02 0.07 0.04 0.12 0.06 0.15 0.06 0.13 0.1 0.19 0.14 0.22 0.18 0.24 0.2 0.24 0.23 0.23 0.31 0.26 0.35 0.24 0.36 0.2 0.41 0.18 0.42 0.14 0.44 0.1 0.39 0.05 0.33 0.01 0.34 -0.02 0.32 -0.04 0.25 -0.05 0.21 -0.06 0.17 -0.06 0.14 -0.06 0.11 -0.05 0.07 -0.03zm-4.7 -9.41l0.05 -0.02 0.02 -0.01 -0.07 0.03zm-74.74 37.31l74.74 -37.31 4.7 9.41 -74.74 37.31 -0 0 -4.7 -9.41zm-1.41 17.97l-10.13 -2.83 0.03 -0.12 0.16 -0.52 0.17 -0.52 0.18 -0.52 0.19 -0.52 0.2 -0.52 0.21 -0.52 0.22 -0.53 0.23 -0.52 0.24 -0.52 0.25 -0.52 0.27 -0.52 0.28 -0.52 0.29 -0.51 0.31 -0.51 0.32 -0.5 0.34 -0.5 0.35 -0.5 0.37 -0.49 0.38 -0.48 0.4 -0.48 0.42 -0.47 0.43 -0.46 0.45 -0.45 0.47 -0.43 0.48 -0.42 0.51 -0.41 0.52 -0.4 0.54 -0.38 0.55 -0.37 0.57 -0.35 0.59 -0.33 0.61 -0.32 4.7 9.41 -0.28 0.15 -0.27 0.15 -0.26 0.16 -0.26 0.17 -0.25 0.18 -0.24 0.18 -0.23 0.19 -0.23 0.2 -0.23 0.21 -0.22 0.22 -0.22 0.23 -0.21 0.23 -0.2 0.24 -0.2 0.26 -0.2 0.26 -0.19 0.27 -0.19 0.28 -0.18 0.29 -0.18 0.3 -0.17 0.3 -0.17 0.31 -0.16 0.32 -0.16 0.33 -0.16 0.34 -0.15 0.34 -0.15 0.35 -0.14 0.36 -0.14 0.36 -0.13 0.37 -0.13 0.37 -0.12 0.38 -0.12 0.38 0.03 -0.12zm-10.13 -2.83l0.02 -0.08 0.01 -0.03 -0.03 0.12zm-64.06 226.54l3.22 -10.02 -2.16 -0.22 -3.54 2.05 0.53 -1.14 0.98 -2.48 1.28 -3.52 1.54 -4.43 1.76 -5.26 1.96 -6.01 2.15 -6.7 2.31 -7.31 2.45 -7.85 2.58 -8.32 2.68 -8.73 2.77 -9.07 2.83 -9.34 2.88 -9.55 2.91 -9.69 2.92 -9.76 2.91 -9.76 2.88 -9.7 2.83 -9.57 2.77 -9.37 2.68 -9.1 2.58 -8.77 2.45 -8.37 2.31 -7.91 2.15 -7.37 1.97 -6.77 1.77 -6.1 1.55 -5.37 1.31 -4.57 1.05 -3.69 0.77 -2.75 10.13 2.83 -0.79 2.79 -1.06 3.72 -1.31 4.58 -1.55 5.38 -1.77 6.11 -1.97 6.78 -2.15 7.38 -2.31 7.91 -2.46 8.38 -2.58 8.78 -2.68 9.11 -2.77 9.38 -2.84 9.58 -2.88 9.71 -2.91 9.77 -2.92 9.77 -2.91 9.7 -2.89 9.56 -2.84 9.36 -2.77 9.09 -2.69 8.75 -2.59 8.35 -2.46 7.88 -2.32 7.34 -2.16 6.74 -1.98 6.08 -1.79 5.35 -1.58 4.56 -1.36 3.73 -1.14 2.88 -1.05 2.2 -4.53 3.24 -2.16 -0.22zm2.16 0.22l-1.1 0.11 -1.05 -0.34 2.16 0.22zm-102.3 -144.15l8.44 -6.29 0.21 0.3 1.2 1.86 1.6 2.46 1.96 3 2.29 3.5 2.6 3.96 2.88 4.38 3.13 4.75 3.36 5.08 3.56 5.38 3.73 5.62 3.88 5.83 3.99 5.99 4.08 6.12 4.15 6.2 4.19 6.24 4.2 6.23 4.18 6.19 4.14 6.1 4.06 5.97 3.97 5.8 3.84 5.59 3.69 5.33 3.51 5.03 3.3 4.69 3.06 4.31 2.8 3.88 2.51 3.4 2.18 2.88 1.81 2.3 1.37 1.63 0.75 0.79 -1.24 -0.63 -3.22 10.02 -2.66 -1.64 -1.51 -1.56 -1.67 -1.99 -1.97 -2.5 -2.28 -3.01 -2.57 -3.5 -2.85 -3.95 -3.1 -4.36 -3.33 -4.73 -3.53 -5.07 -3.71 -5.36 -3.86 -5.61 -3.98 -5.82 -4.08 -5.99 -4.15 -6.12 -4.19 -6.2 -4.2 -6.25 -4.19 -6.25 -4.16 -6.21 -4.09 -6.13 -4 -6 -3.88 -5.84 -3.74 -5.63 -3.56 -5.38 -3.36 -5.09 -3.14 -4.76 -2.89 -4.39 -2.61 -3.97 -2.3 -3.51 -1.97 -3.02 -1.61 -2.48 -1.23 -1.9 0.21 0.3zm8.44 -6.29l0.11 0.14 0.1 0.16 -0.21 -0.3zm-7.33 7.47l-4.7 -9.41 0 0 0.24 -0.12 0.25 -0.12 0.26 -0.12 0.26 -0.12 0.26 -0.12 0.28 -0.12 0.3 -0.12 0.3 -0.12 0.31 -0.11 0.34 -0.11 0.35 -0.1 0.36 -0.09 0.4 -0.08 0.42 -0.07 0.43 -0.05 0.48 -0.03 0.48 0 0.49 0.03 0.51 0.07 0.53 0.11 0.52 0.14 0.49 0.18 0.48 0.21 0.47 0.24 0.45 0.28 0.41 0.29 0.38 0.3 0.37 0.33 0.34 0.34 0.31 0.33 0.29 0.34 0.28 0.36 -8.44 6.29 -0.02 -0.03 -0.01 -0.01 0.01 0.01 0.04 0.04 0.07 0.06 0.08 0.07 0.11 0.08 0.15 0.09 0.17 0.09 0.18 0.08 0.19 0.07 0.21 0.06 0.22 0.04 0.19 0.03 0.17 0.01 0.16 0 0.15 -0.01 0.09 -0.01 0.08 -0.01 0.06 -0.01 0.01 -0 -0 0 -0.02 0.01 -0.06 0.02 -0.08 0.03 -0.09 0.04 -0.12 0.05 -0.14 0.06 -0.15 0.07 -0.16 0.08 -0.18 0.09 -0.2 0.1 0 0zm-59.36 17.87l54.66 -27.29 4.7 9.41 -54.66 27.29 -0 0 -4.7 -9.41zm1.78 16.02l-10.5 0.72 0.01 0.14 -0.05 -0.62 -0.04 -0.62 -0.03 -0.61 -0.01 -0.61 0 -0.61 0.02 -0.61 0.04 -0.61 0.06 -0.61 0.08 -0.62 0.1 -0.61 0.13 -0.61 0.15 -0.6 0.18 -0.6 0.2 -0.6 0.23 -0.59 0.26 -0.59 0.28 -0.57 0.31 -0.56 0.34 -0.55 0.37 -0.53 0.4 -0.52 0.42 -0.5 0.44 -0.48 0.47 -0.46 0.49 -0.44 0.5 -0.42 0.52 -0.4 0.54 -0.38 0.56 -0.36 0.57 -0.34 0.58 -0.33 0.6 -0.31 4.7 9.41 -0.31 0.16 -0.29 0.16 -0.26 0.16 -0.23 0.15 -0.21 0.15 -0.19 0.15 -0.17 0.14 -0.15 0.13 -0.13 0.13 -0.12 0.13 -0.11 0.13 -0.09 0.12 -0.08 0.12 -0.08 0.12 -0.07 0.13 -0.07 0.14 -0.06 0.14 -0.06 0.15 -0.06 0.17 -0.05 0.18 -0.05 0.2 -0.04 0.21 -0.04 0.23 -0.03 0.25 -0.03 0.27 -0.02 0.29 -0.01 0.31 -0 0.33 0.01 0.35 0.02 0.37 0.03 0.39 0.03 0.41 0.01 0.14zm-0.01 -0.14l0.01 0.08 0 0.07 -0.01 -0.14zm13.15 344.4l-23.63 -343.53 10.5 -0.72 23.63 343.53 -10.49 0.86 -0.01 -0.14zm0.01 0.14l-0.01 -0.07 -0 -0.07 0.01 0.14zm4.35 -3.11l4.7 9.41 -0 0 -0.32 0.15 -0.35 0.15 -0.39 0.14 -0.45 0.13 -0.47 0.1 -0.59 0.08 -0.66 0.02 -0.73 -0.07 -0.78 -0.18 -0.79 -0.3 -0.75 -0.43 -0.63 -0.49 -0.5 -0.52 -0.41 -0.53 -0.32 -0.53 -0.23 -0.47 -0.17 -0.42 -0.11 -0.35 -0.09 -0.32 -0.07 -0.31 -0.05 -0.25 -0.04 -0.23 -0.03 -0.22 -0.03 -0.22 -0.02 -0.18 -0.02 -0.17 -0.02 -0.17 -0.01 -0.16 -0.01 -0.15 -0.01 -0.13 -0.01 -0.14 -0.01 -0.13 10.48 -0.99 0.02 0.19 0.01 0.17 0.01 0.17 0.01 0.15 0.01 0.13 0.01 0.11 0.01 0.1 0.01 0.07 0 0.03 0 0.01 -0 -0.01 -0.01 -0.05 -0.03 -0.11 -0.04 -0.14 -0.06 -0.18 -0.11 -0.27 -0.16 -0.33 -0.24 -0.4 -0.32 -0.42 -0.41 -0.42 -0.53 -0.41 -0.64 -0.37 -0.66 -0.26 -0.64 -0.15 -0.58 -0.05 -0.5 0.01 -0.42 0.05 -0.28 0.06 -0.25 0.07 -0.17 0.06 -0.11 0.05 -0.07 0.03 -0 0z"/>
    </g>
   </g>
  </g>
 </g>
</svg>
